<svg width="98" height="39" viewBox="0 0 98 39" fill="none" xmlns="http://www.w3.org/2000/svg">
<path d="M2.72844 29.476V38.5365H0V18.5107H13.3333L13.6937 20.4155C13.6422 20.4155 13.6422 20.4155 13.5907 20.364C13.4878 20.364 13.4363 20.364 13.4363 20.3125C13.2304 20.0037 12.4582 19.6948 11.1712 19.3859C9.83269 19.077 8.08237 18.9226 5.86873 18.9226H2.72844V28.9612H11.4286V29.4245H2.72844V29.476Z" fill="black"/>
<path d="M22.8572 32.8738C22.8572 32.359 22.8572 31.8442 22.8572 31.3294C22.8572 30.7631 22.8057 30.2483 22.8057 29.6821C22.5998 30.1454 22.2394 30.4543 21.7246 30.7631C21.2098 31.0205 20.6435 31.2779 20.0258 31.4839C19.408 31.6898 18.7388 31.8957 18.0695 32.0501C17.4003 32.2561 16.731 32.462 16.1648 32.7709C15.5985 33.0797 15.1352 33.4401 14.7748 33.9034C14.4144 34.3667 14.2085 34.9845 14.2085 35.7052C14.2085 36.5289 14.4144 37.0952 14.8263 37.507C15.2381 37.9189 15.8044 38.1248 16.5251 38.1248C17.2458 38.1248 18.1725 37.9189 19.1506 37.4555C20.1802 36.9922 21.3128 36.323 22.5483 35.4478C22.2394 35.7567 21.8276 36.1171 21.3128 36.5289C20.798 36.9407 20.1802 37.3011 19.511 37.6615C18.8417 38.0218 18.1725 38.3307 17.5032 38.5366C16.7825 38.794 16.1648 38.897 15.5985 38.897C15.1352 38.897 14.6204 38.8455 14.157 38.7425C13.6937 38.6396 13.2304 38.4851 12.8185 38.2277C12.4067 37.9703 12.0978 37.6615 11.8404 37.2496C11.583 36.8378 11.4286 36.2715 11.4286 35.6023C11.4286 35.036 11.583 34.5212 11.8919 34.1093C12.2008 33.6975 12.6126 33.3371 13.1274 33.0283C13.6422 32.7194 14.26 32.462 14.9292 32.2561C15.5985 32.0501 16.2677 31.8442 16.9884 31.6898C17.7092 31.4839 18.3784 31.3294 19.0476 31.175C19.7169 31.0205 20.3346 30.8146 20.8494 30.6087C21.4157 30.4028 21.8276 30.1454 22.1879 29.888C22.4968 29.5791 22.7027 29.2702 22.7542 28.8584C22.6512 28.2406 22.5483 27.6743 22.3424 27.1081C22.1879 26.5418 21.9305 26.0785 21.6216 25.6666C21.3128 25.2548 20.9009 24.9459 20.4376 24.6885C19.9743 24.4311 19.3565 24.3796 18.6873 24.3796C17.6577 24.4311 16.8855 24.5341 16.3707 24.74C15.8559 24.9459 15.4955 25.2033 15.2381 25.5122C14.9807 25.8211 14.9292 26.1299 14.9292 26.4903C14.9292 26.8507 14.9292 27.1595 14.9292 27.4684C14.9292 27.8288 14.8263 28.0862 14.6204 28.2921C14.4144 28.498 14.157 28.5495 13.8482 28.5495C13.5393 28.5495 13.2304 28.4465 12.9215 28.1891C12.6126 27.9317 12.5097 27.6229 12.5097 27.211C12.5097 26.6447 12.7671 26.1299 13.2304 25.7181C13.6937 25.3063 14.3115 24.9459 14.9807 24.6885C15.65 24.4311 16.3707 24.2252 17.0914 24.1222C17.8121 24.0193 18.3784 23.9678 18.8417 23.9678C20.2832 23.9678 21.4672 24.1737 22.3424 24.5855C23.2175 24.9974 23.8868 25.5637 24.3501 26.2329C24.8134 26.9021 25.1223 27.7258 25.2767 28.6525C25.4312 29.5791 25.4826 30.5057 25.4826 31.5353V38.5881H22.9086V32.8738H22.8572Z" fill="black"/>
<path d="M31.1455 37.5067C31.4029 37.8671 31.8147 38.1245 32.381 38.2789C32.9473 38.4334 33.5135 38.5364 34.1828 38.5364C34.8005 38.5364 35.4698 38.4849 36.0875 38.3304C36.7568 38.176 37.3231 37.9701 37.8379 37.7127C38.3527 37.4553 38.816 37.1464 39.1249 36.7345C39.4852 36.3742 39.6397 35.9109 39.6397 35.3961C39.6397 34.7783 39.3823 34.2635 38.816 33.9031C38.2497 33.5428 37.529 33.2339 36.7053 32.9765C35.8816 32.7191 34.955 32.4617 33.9769 32.2558C32.9987 32.0499 32.0721 31.741 31.2484 31.4321C30.4247 31.0717 29.704 30.6599 29.1377 30.0936C28.5715 29.5273 28.3141 28.8066 28.3141 27.9315C28.3141 27.1078 28.52 26.4385 28.9318 25.9237C29.3437 25.4089 29.9099 24.9971 30.5277 24.6882C31.1969 24.3793 31.8662 24.1734 32.6384 24.0705C33.4106 23.9675 34.0798 23.916 34.7491 23.916C35.0579 23.916 35.4698 23.9675 35.9846 24.019C36.4994 24.0705 37.0142 24.2249 37.4775 24.4308C37.9408 24.6367 38.4041 24.8427 38.7645 25.1515C39.1249 25.4604 39.3308 25.8723 39.3308 26.3356C39.3308 26.6445 39.2278 26.9019 38.9704 27.1078C38.713 27.3137 38.4556 27.4167 38.1467 27.4167C37.7349 27.4167 37.4775 27.3137 37.2716 27.1593C37.0657 27.0048 36.9627 26.7989 36.8597 26.5415C36.7568 26.3356 36.7053 26.0782 36.6538 25.8208C36.6023 25.5634 36.5509 25.3575 36.3964 25.203C36.139 24.8941 35.8301 24.6367 35.5213 24.5338C35.1609 24.4308 34.7491 24.3279 34.2857 24.3279C33.7709 24.3279 33.2561 24.3793 32.7413 24.4823C32.1751 24.5853 31.7117 24.7397 31.2484 24.9456C30.7851 25.1515 30.4247 25.4604 30.1673 25.7693C29.8585 26.1297 29.7555 26.5415 29.7555 27.0048C29.7555 27.4681 29.9099 27.88 30.2703 28.1889C30.5792 28.4977 31.0425 28.7551 31.5573 29.0125C32.0721 29.2185 32.6899 29.4244 33.4106 29.5788C34.0798 29.7333 34.8005 29.8877 35.5213 30.0936C36.242 30.2995 36.9627 30.5055 37.6319 30.7114C38.3012 30.9173 38.9189 31.2262 39.4852 31.5351C40 31.8439 40.4633 32.2558 40.7722 32.7191C41.0811 33.1824 41.287 33.8002 41.287 34.4694C41.287 35.2416 41.0811 35.9109 40.6693 36.4771C40.2574 37.0434 39.7426 37.4553 39.0734 37.8156C38.4041 38.176 37.6834 38.4334 36.8597 38.5878C36.0361 38.7423 35.1609 38.8452 34.2857 38.8452C33.9769 38.8452 33.668 38.8452 33.2561 38.7938C32.8443 38.7423 32.4325 38.7423 31.9691 38.6393C31.5058 38.5878 31.094 38.4849 30.6307 38.3304C30.1673 38.2275 29.807 38.073 29.4466 37.8671C29.0863 37.6612 28.8289 37.4553 28.5715 37.1979C28.3655 36.9405 28.2626 36.6316 28.2626 36.2197C28.2626 35.9109 28.3655 35.7049 28.6229 35.499C28.8803 35.2931 29.1377 35.1901 29.4466 35.1901C29.8585 35.1901 30.1159 35.2931 30.3218 35.4475C30.5277 35.602 30.6307 35.8079 30.7336 36.0653C30.7851 36.3227 30.8881 36.5286 30.8881 36.786C30.9395 37.1464 31.0425 37.3523 31.1455 37.5067Z" fill="black"/>
<path d="M43.2432 18.5106L45.8172 17.1206V38.5878H43.2432V18.5106ZM46.1261 25.6663C46.332 25.3574 46.6409 25.1 46.9498 24.8941C47.2587 24.6882 47.619 24.4823 48.0309 24.3793C48.4427 24.2763 48.8031 24.1219 49.2149 24.0704C49.6268 24.0189 49.9871 23.9675 50.399 23.9675C51.583 23.9675 52.5611 24.1219 53.3333 24.3793C54.1055 24.6367 54.7748 25.0485 55.2381 25.5119C55.7529 25.9752 56.1132 26.5415 56.3706 27.1592C56.628 27.777 56.834 28.4462 56.9369 29.1155C57.0399 29.8362 57.0914 30.5054 57.1428 31.2776C57.1428 31.9983 57.1428 32.7191 57.1428 33.3883V38.5878H54.5688V33.1309C54.5688 32.6161 54.5688 32.1013 54.5688 31.4835C54.5688 30.8658 54.5174 30.248 54.4659 29.5788C54.4144 28.9095 54.26 28.2918 54.1055 27.674C53.9511 27.0563 53.6937 26.5415 53.3848 26.0267C53.0759 25.5633 52.6126 25.1515 52.0978 24.8941C51.583 24.5852 50.9138 24.4308 50.0901 24.4308C49.4208 24.4308 48.906 24.4823 48.4427 24.5852C47.9794 24.6882 47.619 24.7911 47.3102 24.8941C47.0013 24.9971 46.7439 25.1515 46.5894 25.3059C46.3835 25.4604 46.2291 25.5633 46.1261 25.6663Z" fill="black"/>
<path d="M62.9767 23.5046V38.5367H60.4027V24.8946L62.9767 23.5046Z" fill="black"/>
<path d="M59.6971 19.0765C59.2914 19.2899 58.2889 19.3847 58.2889 19.3847V19.7639C58.2889 19.7639 59.2914 19.8587 59.6971 20.0721C60.079 20.2854 60.4132 20.5698 60.6518 20.9491C60.9144 21.3283 61.0815 21.755 61.2008 22.2527C61.3201 22.7505 61.3679 23.1795 61.3679 23.1795H61.702C61.702 23.1795 61.8198 22.499 61.8691 22.2527C61.9884 21.755 62.1794 21.3283 62.418 20.9491C62.6567 20.5698 62.967 20.2854 63.3727 20.0721C63.7785 19.8587 64.7809 19.7639 64.7809 19.7639V19.3847C64.7809 19.3847 63.7785 19.2899 63.3727 19.0765C62.9909 18.8632 62.6567 18.5788 62.418 18.1995C62.1555 17.8203 61.9884 17.3936 61.8691 16.8959C61.8143 16.6025 61.702 15.855 61.702 15.855H61.3679C61.3679 15.855 61.2569 16.7063 61.2008 16.8959C61.0815 17.3936 60.8905 17.8203 60.6518 18.1995C60.4132 18.5788 60.1029 18.8632 59.6971 19.0765Z" fill="black"/>
<path d="M66.0729 31.4321C66.0729 30.454 66.2274 29.5273 66.5363 28.6007C66.8451 27.6741 67.3599 26.9019 68.0292 26.1811C68.6984 25.4604 69.5221 24.9456 70.5002 24.5338C71.4783 24.1219 72.6624 23.916 74.0009 23.916C75.3393 23.916 76.5234 24.1219 77.5015 24.5338C78.4796 24.9456 79.3033 25.5119 79.9725 26.2326C80.6418 26.9533 81.1051 27.7255 81.414 28.6522C81.7229 29.5273 81.8773 30.5055 81.8773 31.4321C81.8773 32.4102 81.7229 33.3369 81.414 34.2635C81.1051 35.1901 80.5903 35.9623 79.9211 36.6831C79.2518 37.4038 78.4281 37.9186 77.45 38.3304C76.4719 38.7423 75.2879 38.9482 74.0009 38.9482C72.7139 38.9482 71.4783 38.7423 70.5002 38.3304C69.5221 37.9186 68.6984 37.3523 68.0292 36.6316C67.3599 35.9109 66.8966 35.1387 66.5363 34.212C66.2274 33.3369 66.0729 32.4102 66.0729 31.4321ZM72.6624 24.5338C71.7872 24.5338 71.0665 24.7397 70.5002 25.1515C69.9339 25.5634 69.4706 26.0782 69.1617 26.6959C68.8529 27.3137 68.6984 28.0859 68.5955 28.9096C68.544 29.7333 68.5955 30.6084 68.7499 31.4836C68.9043 32.3587 69.1617 33.1824 69.5736 34.0576C69.9339 34.8813 70.3973 35.602 70.9635 36.2712C71.5298 36.889 72.1476 37.4553 72.8683 37.8156C73.589 38.2275 74.3612 38.4334 75.2364 38.4334C76.1115 38.4334 76.7808 38.2275 77.3471 37.8156C77.9133 37.4038 78.3252 36.889 78.6341 36.2712C78.9429 35.6535 79.0974 34.8813 79.2003 34.0576C79.2518 33.2339 79.2004 32.3587 79.0459 31.4836C78.8915 30.6084 78.5826 29.7847 78.2222 28.9096C77.8619 28.0859 77.3985 27.3652 76.8323 26.6959C76.266 26.0782 75.6482 25.5119 74.9275 25.1515C74.2068 24.7912 73.5375 24.5338 72.6624 24.5338Z" fill="black"/>
<path d="M84.0855 24.8944L86.6595 23.5044V38.5366H84.0855V24.8944ZM86.9169 25.6666C87.1228 25.3577 87.4317 25.1003 87.7406 24.8944C88.0495 24.6884 88.4098 24.4825 88.8217 24.3796C89.2335 24.2766 89.5939 24.1222 90.0057 24.0707C90.4176 24.0192 90.7779 23.9677 91.1898 23.9677C92.3738 23.9677 93.3519 24.1222 94.1241 24.3796C94.8963 24.637 95.5656 25.0488 96.0289 25.5121C96.5437 25.9754 96.904 26.5417 97.1614 27.1595C97.4188 27.7772 97.6248 28.4465 97.7277 29.1157C97.8307 29.8364 97.8822 30.5057 97.9336 31.2779C97.9336 31.9986 97.9336 32.7193 97.9336 33.3886V38.5881H95.3596V33.1312C95.3596 32.6164 95.3596 32.1016 95.3596 31.4838C95.3596 30.866 95.3082 30.2483 95.2567 29.579C95.2052 28.9098 95.0508 28.292 94.8963 27.6743C94.7419 27.0565 94.4845 26.5417 94.1756 26.0269C93.8667 25.5636 93.4034 25.1518 92.8886 24.8944C92.3738 24.5855 91.7046 24.431 90.8809 24.431C90.2116 24.431 89.6968 24.4825 89.2335 24.5855C88.7702 24.6884 88.4098 24.7914 88.1009 24.8944C87.7921 24.9973 87.5347 25.1518 87.3802 25.3062C87.1743 25.4606 87.0199 25.5636 86.9169 25.6666Z" fill="black"/>
<path d="M28.1017 0.0810547C30.1609 0.0810547 31.9627 0.389935 33.5071 0.956216C35.0515 1.57398 36.3385 2.34618 37.3681 3.3243C38.3977 4.30242 39.17 5.3835 39.6848 6.6705C40.1996 7.90602 40.457 9.19302 40.457 10.5315C40.457 11.8185 40.1996 13.1055 39.6848 14.341C39.17 15.5765 38.3977 16.7091 37.3681 17.6872C36.3385 18.6654 35.0515 19.4376 33.5071 20.0553C31.9627 20.6731 30.1609 20.982 28.1017 20.982C26.0425 20.982 24.2407 20.6731 22.6963 20.0553C21.1519 19.4376 19.8649 18.6654 18.8353 17.6872C17.8057 16.7091 17.0335 15.5765 16.5187 14.341C16.0039 13.1055 15.7465 11.8185 15.7465 10.5315C15.7465 9.19302 16.0039 7.9575 16.5187 6.6705C17.0335 5.43498 17.8057 4.30242 18.8353 3.3243C19.8649 2.34618 21.1519 1.57398 22.6963 0.956216C24.2407 0.389935 26.0425 0.0810547 28.1017 0.0810547ZM29.6461 20.3127C31.1905 20.3127 32.529 20.0553 33.6101 19.489C34.6912 18.9228 35.5663 18.202 36.2356 17.2754C36.9048 16.3488 37.3167 15.3191 37.5226 14.1351C37.7285 12.9511 37.7285 11.767 37.5741 10.5315C37.3681 9.29598 37.0078 8.11194 36.39 6.9279C35.7723 5.74386 35.0515 4.71426 34.1249 3.78762C33.1983 2.86098 32.1172 2.14026 30.8302 1.57398C29.5432 1.0077 28.1532 0.750295 26.6088 0.750295C25.0129 0.750295 23.6744 1.0077 22.5934 1.57398C21.5123 2.14026 20.6371 2.86098 20.0194 3.78762C19.3501 4.71426 18.9383 5.74386 18.7324 6.9279C18.5264 8.11194 18.5264 9.29598 18.6809 10.5315C18.8868 11.767 19.2472 12.9511 19.8134 14.1351C20.3797 15.3191 21.1519 16.3488 22.0786 17.2754C23.0052 18.202 24.1378 18.9228 25.3733 19.489C26.6603 20.0038 28.1017 20.3127 29.6461 20.3127Z" fill="black"/>
<path d="M43.2432 4.92023L45.8172 3.53027V12.076C45.8687 12.9511 46.0231 13.8263 46.2805 14.5985C46.5379 15.3707 46.8983 16.0914 47.4131 16.6577C47.8764 17.224 48.4427 17.7388 49.1634 18.0476C49.8327 18.408 50.6049 18.5624 51.48 18.5624C52.5611 18.5624 53.3848 18.2021 54.054 17.5328C54.7233 16.8636 55.1351 15.9884 55.3925 14.9588C55.6499 13.9292 55.7014 12.7967 55.5984 11.6126C55.4955 10.4286 55.1866 9.29604 54.7233 8.26644C54.26 7.23684 53.6422 6.36168 52.87 5.69244C52.0978 5.02319 51.1712 4.66283 50.1416 4.66283C49.7812 4.66283 49.3693 4.71431 49.009 4.86875C48.6486 5.02319 48.2883 5.17763 47.9279 5.38356C47.5675 5.58948 47.2587 5.84688 47.0013 6.10428C46.6924 6.36168 46.4865 6.67056 46.332 6.92796C46.7439 6.0528 47.4131 5.33208 48.2883 4.76579C49.2149 4.19951 50.193 3.94211 51.2226 3.94211C52.5096 3.94211 53.5907 4.14803 54.5174 4.55987C55.444 4.97171 56.1647 5.538 56.7825 6.25872C57.3488 6.97944 57.8121 7.75164 58.0695 8.67828C58.3269 9.60492 58.4813 10.4801 58.4813 11.4582C58.4813 12.4363 58.3269 13.3115 58.0695 14.2381C57.8121 15.1133 57.3488 15.937 56.7825 16.6577C56.2162 17.3784 55.444 17.9447 54.5174 18.3565C53.5907 18.7684 52.5096 19.0258 51.2741 19.0258C49.9356 19.0258 48.8031 18.8198 47.9279 18.4595C47.0527 18.0991 46.3835 17.5843 45.8687 16.9666V25.7697H43.2947V4.92023H43.2432Z" fill="black"/>
<path d="M64.4942 8.8842C64.4942 9.86232 64.6486 10.8404 64.9575 11.87C65.2664 12.8996 65.7297 13.7748 66.296 14.65C66.8622 15.4736 67.583 16.1429 68.4066 16.6577C69.2303 17.1725 70.157 17.4299 71.1351 17.4299C72.0617 17.4299 72.8854 17.224 73.6061 16.8636C74.3268 16.4518 74.9446 15.9884 75.4594 15.4736C75.9742 14.9588 76.3861 14.3926 76.6435 13.8778C76.9523 13.363 77.1068 12.9511 77.1068 12.6937C77.0553 13.363 76.7979 14.0837 76.3861 14.7529C75.9742 15.4222 75.4594 16.0399 74.7902 16.6062C74.1209 17.1725 73.4002 17.5843 72.525 17.9447C71.6499 18.2536 70.7232 18.4595 69.7451 18.4595C68.4066 18.4595 67.2226 18.2536 66.2445 17.8417C65.2664 17.4299 64.4427 16.8636 63.7734 16.1429C63.1042 15.4222 62.6409 14.65 62.2805 13.7233C61.9716 12.8482 61.8172 11.87 61.8172 10.9434C61.8172 9.6564 62.0231 8.57532 62.435 7.64868C62.8468 6.72204 63.4131 5.94984 64.0823 5.33208C64.7516 4.71431 65.5238 4.25099 66.3989 3.99359C67.2741 3.68471 68.1492 3.53027 69.0244 3.53027C69.6936 3.53027 70.3629 3.63323 70.9806 3.83915C71.6499 4.04507 72.2162 4.35395 72.7824 4.76579C73.3487 5.17763 73.8121 5.64096 74.2239 6.15576C74.6357 6.72204 74.9446 7.28832 75.202 7.95756C75.305 8.26644 75.2535 8.52384 75.0991 8.72976C74.9446 8.93568 74.6872 9.03864 74.3268 9.03864H64.4942V8.8842ZM68.5096 3.89063C67.8404 3.89063 67.2741 3.99359 66.7593 4.25099C66.2445 4.50839 65.8326 4.81727 65.5238 5.22912C65.2149 5.64096 64.9575 6.15576 64.7516 6.67056C64.5971 7.23684 64.4942 7.80312 64.4427 8.42088H72.8854C72.7824 8.06052 72.628 7.64868 72.4221 7.13388C72.2162 6.61908 71.9073 6.10428 71.5469 5.64096C71.1866 5.17763 70.7747 4.76579 70.2599 4.40543C69.7451 4.04507 69.1274 3.89063 68.5096 3.89063Z" fill="black"/>
<path d="M78.5046 4.76545L81.0786 3.37549V18.4077H78.5046V4.76545ZM81.3875 5.53765C81.5934 5.22877 81.9023 4.97137 82.2112 4.76545C82.5201 4.55953 82.8804 4.35361 83.2923 4.25065C83.7041 4.09621 84.0645 3.99325 84.4763 3.94177C84.8882 3.89029 85.2485 3.83881 85.6604 3.83881C86.8444 3.83881 87.8225 3.99325 88.5947 4.25065C89.3669 4.50805 90.0362 4.91989 90.4995 5.38321C91.0143 5.84653 91.3747 6.41281 91.6321 7.03057C91.8895 7.64833 92.0954 8.31757 92.1983 8.98681C92.3013 9.70753 92.3528 10.3768 92.4043 11.149C92.4043 11.8697 92.4043 12.5904 92.4043 13.2597V18.4591H89.8302V13.0023C89.8302 12.4875 89.8302 11.9727 89.8302 11.3034C89.8302 10.6857 89.7788 10.0679 89.7273 9.39865C89.6758 8.72941 89.5214 8.11165 89.3669 7.49389C89.2125 6.87613 88.9551 6.36133 88.6462 5.84653C88.3373 5.38321 87.874 4.97137 87.3592 4.66249C86.8444 4.35361 86.1752 4.19917 85.3515 4.19917C84.6822 4.19917 84.1674 4.25065 83.7041 4.35361C83.2408 4.45657 82.8804 4.55953 82.5716 4.66249C82.2627 4.76545 82.0053 4.91989 81.8508 5.07433C81.6449 5.28025 81.4905 5.43469 81.3875 5.53765Z" fill="black"/>
</svg>
